<?xml version="1.0" encoding="iso-8859-1"?>
<!-- Generator: Adobe Illustrator 18.0.0, SVG Export Plug-In . SVG Version: 6.00 Build 0)  -->
<!DOCTYPE svg PUBLIC "-//W3C//DTD SVG 1.1//EN" "http://www.w3.org/Graphics/SVG/1.1/DTD/svg11.dtd">
<svg version="1.1" id="Capa_1" xmlns="http://www.w3.org/2000/svg" xmlns:xlink="http://www.w3.org/1999/xlink" x="0px" y="0px"
	 viewBox="0 0 431.577 431.577" style="enable-background:new 0 0 431.577 431.577;" xml:space="preserve">
<g>
	<path d="M231.721,270.721c0.493,0.281,0.979,0.574,1.455,0.88C232.7,271.295,232.214,271.002,231.721,270.721z"/>
	<path d="M226.297,268.269c0.476,0.164,0.947,0.339,1.413,0.525C227.244,268.608,226.773,268.433,226.297,268.269z"/>
	<path d="M233.393,271.74c1.638,1.068,3.173,2.279,4.587,3.617C236.565,274.02,235.031,272.808,233.393,271.74z"/>
	<path d="M215.785,266.505c0.651,0,1.297,0.025,1.939,0.064C217.082,266.53,216.436,266.505,215.785,266.505z"/>
	<path d="M228.062,268.933c1.186,0.489,2.336,1.046,3.446,1.667C230.398,269.978,229.248,269.421,228.062,268.933z"/>
	<path d="M220.282,266.825c0.503,0.07,1.002,0.153,1.497,0.246C221.283,266.978,220.785,266.895,220.282,266.825z"/>
	<path d="M218.304,266.613c0.461,0.036,0.918,0.08,1.373,0.135C219.222,266.692,218.765,266.649,218.304,266.613z"/>
	<path d="M224.329,267.659c0.505,0.139,1.005,0.289,1.501,0.451C225.334,267.948,224.834,267.797,224.329,267.659z"/>
	<path d="M222.152,267.138c0.626,0.125,1.244,0.269,1.856,0.43C223.396,267.407,222.778,267.263,222.152,267.138z"/>
	<path d="M188.532,316.214c-0.296-0.462-0.58-0.932-0.853-1.409C187.952,315.282,188.236,315.752,188.532,316.214z"/>
	<path d="M198.475,326.138c-2.233-1.421-4.28-3.11-6.098-5.018C194.195,323.029,196.242,324.716,198.475,326.138z"/>
	<path d="M192.288,321.025c-1.329-1.406-2.531-2.932-3.593-4.557C189.755,318.094,190.959,319.618,192.288,321.025z"/>
	<path d="M187.536,314.554c-0.617-1.103-1.17-2.246-1.655-3.424C186.366,312.308,186.92,313.45,187.536,314.554z"/>
	<path d="M183.512,300.781c-0.038-0.642-0.063-1.288-0.063-1.939C183.449,299.493,183.474,300.139,183.512,300.781z"/>
	<path d="M183.691,302.732c-0.055-0.454-0.099-0.911-0.135-1.371C183.592,301.821,183.636,302.278,183.691,302.732z"/>
	<path d="M184.012,304.823c-0.092-0.49-0.174-0.984-0.243-1.481C183.838,303.84,183.92,304.333,184.012,304.823z"/>
	<path d="M185.73,310.751c-0.182-0.457-0.353-0.918-0.514-1.384C185.378,309.833,185.548,310.294,185.73,310.751z"/>
	<path d="M185.05,308.878c-0.159-0.487-0.307-0.98-0.443-1.477C184.744,307.899,184.891,308.391,185.05,308.878z"/>
	<path d="M184.51,307.062c-0.16-0.609-0.303-1.225-0.428-1.848C184.208,305.837,184.35,306.453,184.51,307.062z"/>
	<path d="M243.271,108.235c0.089-0.286,0.178-0.571,0.262-0.863C243.449,107.664,243.36,107.949,243.271,108.235z"/>
	<path d="M244.141,105.058c0.068-0.282,0.136-0.564,0.2-0.851C244.277,104.493,244.21,104.775,244.141,105.058z"/>
	<path d="M242.774,109.752c0.101-0.29,0.202-0.578,0.299-0.874C242.976,109.174,242.875,109.462,242.774,109.752z"/>
	<path d="M243.728,106.667c0.077-0.283,0.154-0.565,0.229-0.854C243.882,106.101,243.805,106.384,243.728,106.667z"/>
	<path d="M244.514,103.405c0.06-0.28,0.118-0.561,0.174-0.844C244.632,102.844,244.574,103.125,244.514,103.405z"/>
	<path d="M241.468,113.035c0.196-0.428,0.387-0.868,0.57-1.319C241.855,112.167,241.665,112.607,241.468,113.035z"/>
	<path d="M242.218,111.254c0.12-0.306,0.24-0.61,0.355-0.925C242.459,110.644,242.338,110.949,242.218,111.254z"/>
	<path d="M157.856,104.457c-0.204-0.115-0.395-0.237-0.585-0.361C157.461,104.22,157.653,104.342,157.856,104.457z"/>
	<path d="M254.061,27.276c0.457,0.37,0.911,0.742,1.355,1.125C254.972,28.019,254.518,27.646,254.061,27.276z"/>
	<path d="M252.332,25.932c0.459,0.343,0.916,0.688,1.363,1.044C253.248,26.62,252.791,26.274,252.332,25.932z"/>
	<path d="M250.125,24.355c0.611,0.413,1.213,0.838,1.806,1.272C251.337,25.192,250.736,24.768,250.125,24.355z"/>
	<path d="M160.409,242.398c0.02-0.016,0.041-0.029,0.062-0.045C160.45,242.369,160.429,242.382,160.409,242.398z"/>
	<path d="M258.806,31.578c0.498,0.507,0.989,1.022,1.47,1.549C259.794,32.601,259.305,32.084,258.806,31.578z"/>
	<path d="M257.271,30.076c0.488,0.46,0.97,0.928,1.441,1.406C258.24,31.004,257.759,30.536,257.271,30.076z"/>
	<path d="M255.693,28.646c0.473,0.413,0.94,0.831,1.398,1.258C256.632,29.477,256.166,29.059,255.693,28.646z"/>
	<path d="M244.847,101.71c0.051-0.276,0.1-0.552,0.147-0.831C244.947,101.157,244.898,101.434,244.847,101.71z"/>
	<path d="M241.371,64.02c-0.01-0.021-0.02-0.043-0.031-0.064C241.35,63.977,241.361,63.999,241.371,64.02z"/>
	<path d="M240.687,62.663c-0.01-0.017-0.019-0.033-0.027-0.05C240.669,62.629,240.677,62.646,240.687,62.663z"/>
	<path d="M155.867,102.978c-0.1-0.096-0.202-0.188-0.296-0.288C155.664,102.79,155.768,102.882,155.867,102.978z"/>
	<path d="M242.005,65.437c-0.011-0.024-0.021-0.049-0.031-0.074C241.984,65.388,241.995,65.413,242.005,65.437z"/>
	<path d="M156.815,103.781c-0.15-0.11-0.298-0.223-0.438-0.339C156.517,103.558,156.666,103.67,156.815,103.781z"/>
	<path d="M162.703,106.169c-1.779-0.378-3.26-0.884-4.501-1.53C159.437,105.286,160.924,105.791,162.703,106.169z"/>
	<path d="M245.897,92.773c0.012-0.199,0.021-0.399,0.03-0.599C245.918,92.374,245.909,92.574,245.897,92.773z"/>
	<path d="M245.98,90.928c0.006-0.162,0.009-0.323,0.014-0.485C245.989,90.604,245.986,90.766,245.98,90.928z"/>
	<path d="M246.017,87.215c0-0.002,0-0.004,0-0.006C246.017,87.212,246.017,87.213,246.017,87.215z"/>
	<path d="M245.771,94.606c0.018-0.226,0.034-0.451,0.051-0.677C245.805,94.154,245.789,94.38,245.771,94.606z"/>
	<path d="M245.602,96.421c0.026-0.246,0.05-0.492,0.073-0.738C245.652,95.929,245.628,96.176,245.602,96.421z"/>
	<path d="M245.14,99.977c0.042-0.269,0.082-0.538,0.121-0.809C245.222,99.439,245.182,99.708,245.14,99.977z"/>
	<path d="M245.392,98.212c0.033-0.258,0.065-0.517,0.096-0.776C245.458,97.694,245.425,97.954,245.392,98.212z"/>
	<path d="M243.604,69.955c-0.001-0.005-0.003-0.011-0.005-0.017C243.601,69.943,243.603,69.949,243.604,69.955z"/>
	<path d="M242.588,66.902c-0.009-0.023-0.018-0.045-0.026-0.068C242.571,66.857,242.58,66.879,242.588,66.902z"/>
	<path d="M161.025,241.957c0.006-0.004,0.013-0.007,0.019-0.011C161.038,241.95,161.031,241.953,161.025,241.957z"/>
	<path d="M246.021,88.764c0,0.103,0,0.206,0,0.309C246.021,88.97,246.021,88.867,246.021,88.764z"/>
	<path d="M243.121,68.409c-0.006-0.016-0.011-0.032-0.016-0.047C243.11,68.378,243.115,68.394,243.121,68.409z"/>
	<polygon points="179.744,252.903 179.743,252.903 188.361,261.522 	"/>
	<path d="M293.228,92.126c-0.572-46.299-19.494-68.719-35.268-79.373C240.441,0.919,222.425,0,217.32,0
		c-0.617,0-0.945,0.014-0.945,0.014c-0.023,0.001-0.086,0.004-0.109,0.005c-26.689,1.482-46.885,12.205-60.027,31.872
		c-10.609,15.879-14.035,33.813-16.082,44.53l-0.379,1.965c-2.727,14.036-1.506,24.388,3.734,31.649
		c6.281,8.699,16.646,10.037,20.053,10.476c1.637,0.211,3.242,0.317,4.771,0.317c23.207,0,27.145-23.092,28.627-31.785
		c3.467-20.317,12.766-27.526,19.678-27.526c3.92,0,7.723,2.181,10.703,6.139c5.563,7.388,6.32,28.819,1.4,39.539
		c-3.449,7.519-17.363,18.094-32.094,29.29c-10.924,8.301-23.303,17.711-34.664,28.184c-16.57,15.268-23.639,27.869-23.639,42.134
		v208.516c0,8.965,7.293,16.259,16.258,16.259H276.97c8.965,0,16.26-7.294,16.26-16.259L293.228,92.126z M279.23,415.318
		c0,1.245-1.014,2.259-2.26,2.259H164.605h-10c-1.246,0-2.258-1.014-2.258-2.259v-10.534h10H279.23V415.318z M279.23,390.784
		H162.347h-10V206.803c0-7.382,2.316-16.349,19.125-31.839c10.875-10.023,22.975-19.219,33.648-27.331
		c17.563-13.349,31.436-23.893,36.348-34.597c0.196-0.428,0.387-0.868,0.57-1.319c0.062-0.15,0.119-0.308,0.18-0.461
		c0.12-0.306,0.24-0.61,0.355-0.925c0.068-0.189,0.133-0.385,0.2-0.577c0.101-0.29,0.202-0.578,0.299-0.874
		c0.068-0.211,0.133-0.428,0.198-0.643c0.089-0.286,0.178-0.571,0.262-0.863c0.067-0.232,0.131-0.469,0.195-0.705
		c0.077-0.283,0.154-0.566,0.229-0.854c0.063-0.249,0.124-0.502,0.185-0.755c0.068-0.282,0.136-0.564,0.2-0.851
		c0.061-0.265,0.116-0.533,0.173-0.802c0.06-0.28,0.118-0.561,0.174-0.844c0.056-0.282,0.107-0.566,0.159-0.851
		c0.051-0.276,0.1-0.552,0.147-0.831c0.051-0.299,0.099-0.6,0.146-0.902c0.042-0.269,0.082-0.538,0.121-0.809
		c0.046-0.317,0.09-0.636,0.131-0.956c0.033-0.258,0.065-0.517,0.096-0.776c0.041-0.337,0.079-0.675,0.114-1.014
		c0.026-0.245,0.05-0.492,0.073-0.738c0.034-0.358,0.066-0.716,0.096-1.077c0.018-0.226,0.034-0.452,0.051-0.677
		c0.027-0.385,0.054-0.769,0.075-1.156c0.012-0.199,0.021-0.399,0.03-0.599c0.02-0.415,0.039-0.83,0.053-1.246
		c0.006-0.162,0.009-0.324,0.014-0.485c0.012-0.457,0.022-0.913,0.027-1.37c0-0.103,0-0.206,0-0.309
		c0.003-0.516,0.003-1.032-0.004-1.549c0-0.002,0-0.004,0-0.006c-0.085-5.989-0.862-11.975-2.413-17.255
		c-0.001-0.005-0.003-0.011-0.005-0.017c-0.151-0.517-0.311-1.026-0.479-1.529c-0.006-0.016-0.011-0.032-0.016-0.047
		c-0.165-0.494-0.338-0.98-0.517-1.459c-0.009-0.023-0.018-0.045-0.026-0.068c-0.178-0.474-0.363-0.939-0.557-1.397
		c-0.011-0.024-0.021-0.049-0.031-0.074c-0.194-0.456-0.395-0.904-0.604-1.343c-0.01-0.021-0.02-0.043-0.031-0.064
		c-0.21-0.44-0.428-0.872-0.652-1.293c-0.01-0.017-0.019-0.033-0.027-0.05c-0.229-0.426-0.465-0.842-0.709-1.247
		c-0.45-0.746-0.921-1.463-1.424-2.131c-5.609-7.446-13.586-11.717-21.887-11.717c-12.361,0-28.545,10.259-33.479,39.173
		c-2.785,16.331-7.48,21.268-17.805,19.937c-0.95-0.123-1.812-0.28-2.633-0.454c-0.008-0.002-0.015-0.004-0.021-0.005
		c-1.778-0.378-3.266-0.882-4.501-1.53c-0.115-0.061-0.235-0.118-0.346-0.181c-0.203-0.115-0.395-0.237-0.585-0.361
		c-0.156-0.103-0.31-0.207-0.456-0.315c-0.149-0.11-0.298-0.223-0.438-0.339c-0.178-0.149-0.347-0.305-0.51-0.464
		c-0.099-0.096-0.203-0.188-0.296-0.288c-0.253-0.27-0.491-0.551-0.708-0.85c-2.773-3.843-3.238-11.029-1.342-20.783l0.385-2.009
		c3.855-20.18,11.869-62.158,63.047-65.046c0.068-0.001,0.193-0.002,0.367-0.002c2.918,0,18.213,0.498,32.805,10.354
		c0.611,0.413,1.213,0.838,1.806,1.272c0.136,0.1,0.267,0.205,0.401,0.305c0.459,0.343,0.916,0.688,1.363,1.044
		c0.124,0.098,0.244,0.201,0.366,0.3c0.457,0.37,0.911,0.743,1.355,1.125c0.093,0.081,0.184,0.164,0.276,0.245
		c0.473,0.413,0.94,0.831,1.398,1.258c0.061,0.057,0.119,0.115,0.18,0.171c0.488,0.46,0.969,0.928,1.441,1.406
		c0.031,0.032,0.063,0.064,0.094,0.096c0.499,0.506,0.988,1.023,1.47,1.549c0.01,0.011,0.019,0.022,0.029,0.033
		c12.245,13.425,18.604,33.229,18.925,59.053V390.784z"/>
	<path d="M161.025,241.957c-0.189,0.121-0.375,0.254-0.555,0.396c-0.021,0.016-0.042,0.029-0.062,0.045
		c-0.194,0.157-0.385,0.324-0.565,0.505c-2.732,2.734-2.732,7.166,0,9.9l2.504,2.504l16.115,16.114
		c-5.66,7.685-9.014,17.167-9.014,27.421c0,25.552,20.785,46.341,46.336,46.341c10.254,0,19.738-3.354,27.422-9.016l18.621,18.621
		c1.367,1.367,3.158,2.051,4.949,2.051c1.791,0,3.584-0.684,4.949-2.051c2.734-2.733,2.734-7.166,0-9.899l-18.619-18.621
		c5.662-7.685,9.016-17.17,9.016-27.426c0-25.55-20.787-46.337-46.338-46.337c-10.256,0-19.738,3.355-27.424,9.017l-8.618-8.619
		l-9.999-10c-1.999-2-4.908-2.53-7.396-1.603c-0.451,0.168-0.889,0.382-1.304,0.646C161.038,241.95,161.031,241.953,161.025,241.957
		z M215.785,266.505c0.651,0,1.297,0.025,1.939,0.064c0.194,0.011,0.387,0.029,0.58,0.044c0.461,0.036,0.918,0.08,1.373,0.135
		c0.201,0.024,0.403,0.049,0.605,0.077c0.503,0.07,1.001,0.153,1.497,0.246c0.124,0.023,0.25,0.042,0.373,0.067
		c0.626,0.125,1.244,0.269,1.856,0.43c0.107,0.028,0.213,0.061,0.32,0.091c0.505,0.139,1.005,0.289,1.501,0.451
		c0.156,0.051,0.312,0.105,0.468,0.159c0.476,0.164,0.946,0.339,1.413,0.525c0.117,0.046,0.235,0.091,0.352,0.139
		c1.186,0.488,2.336,1.046,3.446,1.667c0.071,0.04,0.142,0.082,0.213,0.122c0.493,0.281,0.979,0.574,1.455,0.88
		c0.072,0.046,0.146,0.092,0.217,0.139c1.638,1.068,3.172,2.279,4.587,3.617c0.021,0.02,0.043,0.041,0.063,0.061
		c6.202,5.895,10.079,14.213,10.079,23.424c0,6.388-1.869,12.344-5.078,17.364l-44.621-44.623
		C203.443,268.374,209.398,266.505,215.785,266.505z M188.523,281.482l10,10l34.623,34.623c-5.02,3.208-10.975,5.077-17.361,5.077
		c-6.36,0-12.293-1.853-17.299-5.038c-0.004-0.002-0.008-0.004-0.011-0.007c-2.233-1.422-4.28-3.109-6.098-5.018
		c-0.03-0.032-0.061-0.063-0.09-0.095c-1.329-1.407-2.532-2.931-3.593-4.557c-0.056-0.084-0.109-0.169-0.163-0.254
		c-0.296-0.462-0.58-0.932-0.853-1.409c-0.047-0.084-0.097-0.167-0.144-0.251c-0.616-1.103-1.17-2.246-1.655-3.424
		c-0.053-0.126-0.1-0.253-0.15-0.379c-0.182-0.457-0.353-0.918-0.514-1.384c-0.057-0.163-0.112-0.325-0.166-0.489
		c-0.159-0.487-0.307-0.979-0.443-1.477c-0.031-0.113-0.066-0.225-0.097-0.339c-0.16-0.609-0.303-1.225-0.428-1.848
		c-0.026-0.129-0.046-0.261-0.07-0.391c-0.092-0.49-0.174-0.983-0.243-1.481c-0.028-0.202-0.054-0.406-0.078-0.609
		c-0.055-0.454-0.099-0.911-0.135-1.371c-0.015-0.193-0.032-0.386-0.044-0.581c-0.038-0.642-0.063-1.288-0.063-1.939
		C183.449,292.456,185.316,286.502,188.523,281.482z"/>
</g>
<g>
</g>
<g>
</g>
<g>
</g>
<g>
</g>
<g>
</g>
<g>
</g>
<g>
</g>
<g>
</g>
<g>
</g>
<g>
</g>
<g>
</g>
<g>
</g>
<g>
</g>
<g>
</g>
<g>
</g>
</svg>
